<svg width="78" height="78" viewBox="0 0 78 78" fill="none" xmlns="http://www.w3.org/2000/svg">
<path d="M28.7014 10.4602L33.935 19.3633H33.7395H22.9114C19.5877 19.3633 16.8958 16.6713 16.8958 13.3477C16.8958 10.024 19.5877 7.33203 22.9114 7.33203H23.2422C25.4831 7.33203 27.5735 8.52012 28.7014 10.4602ZM9.677 13.3477C9.677 15.5133 10.2034 17.5586 11.1208 19.3633H4.8645C2.20259 19.3633 0.052002 21.5139 0.052002 24.1758V33.8008C0.052002 36.4627 2.20259 38.6133 4.8645 38.6133H72.2395C74.9014 38.6133 77.052 36.4627 77.052 33.8008V24.1758C77.052 21.5139 74.9014 19.3633 72.2395 19.3633H65.9833C66.9006 17.5586 67.427 15.5133 67.427 13.3477C67.427 6.03867 61.5016 0.113281 54.1926 0.113281H53.8618C49.0643 0.113281 44.6127 2.65488 42.1764 6.79063L38.552 12.9717L34.9276 6.80566C32.4913 2.65488 28.0397 0.113281 23.2422 0.113281H22.9114C15.6024 0.113281 9.677 6.03867 9.677 13.3477ZM60.2083 13.3477C60.2083 16.6713 57.5163 19.3633 54.1926 19.3633H43.3645H43.169L48.4026 10.4602C49.5456 8.52012 51.6209 7.33203 53.8618 7.33203H54.1926C57.5163 7.33203 60.2083 10.024 60.2083 13.3477ZM4.8645 43.4258V69.8945C4.8645 73.8799 8.0979 77.1133 12.0833 77.1133H33.7395V43.4258H4.8645ZM43.3645 77.1133H65.0208C69.0061 77.1133 72.2395 73.8799 72.2395 69.8945V43.4258H43.3645V77.1133Z" fill="white"/>
</svg>
