<svg width="70" height="124" viewBox="0 0 70 124" fill="none" xmlns="http://www.w3.org/2000/svg">
<path d="M34.7261 0.113281C38.9852 0.113281 42.4261 3.55422 42.4261 7.81328V16.4036C42.8111 16.4517 43.172 16.4998 43.557 16.572C46.1077 16.957 53.6873 18.1842 56.8155 18.9783C60.9302 20.013 63.4327 24.1998 62.398 28.3386C61.3633 32.4773 57.1764 34.9558 53.0377 33.9211C50.7999 33.3436 43.9902 32.2367 41.2711 31.8277C33.547 30.6727 26.9298 31.2502 22.382 33.0067C17.9786 34.6911 16.1498 37.0733 15.6686 39.7442C15.2114 42.3189 15.5483 43.7867 15.9814 44.7011C16.4386 45.6636 17.3289 46.7464 19.0855 47.9255C22.9836 50.5242 28.9752 52.2327 36.7233 54.3502L37.397 54.5427C44.2308 56.3955 52.6045 58.6814 58.8127 62.7961C62.2055 65.058 65.3817 68.1139 67.3548 72.3489C69.352 76.632 69.7852 81.4445 68.8708 86.5698C67.2105 95.7136 60.9061 101.825 53.0858 105.026C49.7892 106.373 46.2039 107.24 42.402 107.673V115.613C42.402 119.872 38.9611 123.313 34.702 123.313C30.443 123.313 27.002 119.872 27.002 115.613V107.215C26.9058 107.191 26.7855 107.191 26.6892 107.167H26.6411C20.7698 106.253 11.1208 103.726 4.62391 100.839C0.725786 99.1064 -1.00671 94.5586 0.725786 90.6845C2.45829 86.8105 7.0061 85.0539 10.8802 86.7864C15.9092 89.0242 24.1867 91.2139 28.9752 91.9839C36.6511 93.1148 42.9795 92.4652 47.2627 90.7086C51.3292 89.0483 53.182 86.642 53.7114 83.7545C54.1686 81.1798 53.8317 79.712 53.3986 78.7977C52.9414 77.8352 52.0511 76.7523 50.2945 75.5733C46.3964 72.9745 40.4048 71.2661 32.6567 69.1486L31.983 68.9561C25.1492 67.1033 16.7755 64.8173 10.5673 60.7027C7.17454 58.4408 3.99829 55.3848 2.02516 51.1498C0.0279735 46.8667 -0.405152 42.0542 0.509223 36.9289C2.24172 27.5686 8.97923 21.6011 16.9198 18.5692C20.048 17.3661 23.4648 16.5961 27.0261 16.163V7.81328C27.0261 3.55422 30.467 0.113281 34.7261 0.113281Z" fill="white"/>
</svg>
