<svg width="78" height="69" viewBox="0 0 78 69" fill="none" xmlns="http://www.w3.org/2000/svg">
<path d="M19.8369 10.3533C19.8369 4.69857 24.4222 0.113281 30.077 0.113281C32.7907 0.113281 35.3975 1.19611 37.3092 3.10776L38.5524 4.351L39.7957 3.10776C41.7073 1.19611 44.3141 0.113281 47.0279 0.113281C52.6826 0.113281 57.2679 4.69857 57.2679 10.3533C57.2679 13.0671 56.1851 15.6739 54.2734 17.5855L40.4373 31.4082C39.3946 32.451 37.6969 32.451 36.6541 31.4082L22.8314 17.5855C20.9198 15.6739 19.8369 13.0671 19.8369 10.3533ZM76.0101 45.0705C77.7614 47.4501 77.2534 50.7921 74.8738 52.5434L57.9497 65.0159C54.8215 67.3152 51.0517 68.5585 47.1615 68.5585H25.7189H4.32983C1.96365 68.5585 0.052002 66.6468 0.052002 64.2806V55.725C0.052002 53.3588 1.96365 51.4472 4.32983 51.4472H9.24932L15.2516 46.6346C18.2862 44.2016 22.0561 42.8915 25.9462 42.8915H36.4135H38.5524H47.1081C49.4742 42.8915 51.3859 44.8032 51.3859 47.1693C51.3859 49.5355 49.4742 51.4472 47.1081 51.4472H38.5524H36.4135C35.2371 51.4472 34.2746 52.4097 34.2746 53.5861C34.2746 54.7625 35.2371 55.725 36.4135 55.725H52.5356L68.5373 43.9342C70.9168 42.183 74.2589 42.691 76.0101 45.0705ZM25.9328 51.4472H25.8125C25.8526 51.4472 25.8927 51.4472 25.9328 51.4472Z" fill="white"/>
</svg>
